<svg width="182" height="43" viewBox="0 0 182 43" fill="none" xmlns="http://www.w3.org/2000/svg">
    <path d="M16.62 38.1998C13.22 38.1998 10.28 37.4398 7.8 35.9198C5.32 34.3998 3.4 32.3998 2.04 29.9198C0.68 27.4398 0 24.7598 0 21.8798C0 18.9598 0.66 16.2598 1.98 13.7798C3.34 11.2998 5.26 9.31976 7.74 7.83976C10.22 6.35976 13.16 5.61976 16.56 5.61976C20 5.61976 22.92 6.35976 25.32 7.83976C27.76 9.31976 29.58 11.2598 30.78 13.6598L22.92 16.0598C21.52 13.6598 19.38 12.4598 16.5 12.4598C14.94 12.4598 13.54 12.8598 12.3 13.6598C11.06 14.4198 10.08 15.5198 9.36 16.9598C8.64 18.3598 8.28 19.9998 8.28 21.8798C8.28 23.7198 8.64 25.3598 9.36 26.7998C10.12 28.1998 11.12 29.3198 12.36 30.1598C13.6 30.9598 14.98 31.3598 16.5 31.3598C17.94 31.3598 19.26 31.0198 20.46 30.3398C21.7 29.6198 22.56 28.7198 23.04 27.6398L30.9 30.0398C29.82 32.3998 28.02 34.3598 25.5 35.9198C23.02 37.4398 20.06 38.1998 16.62 38.1998Z" fill="black"/>
    <path d="M50.0742 38.1998C46.6342 38.1998 43.6742 37.4598 41.1942 35.9798C38.7542 34.4598 36.8742 32.4598 35.5542 29.9798C34.2342 27.4998 33.5742 24.8198 33.5742 21.9398C33.5742 19.0198 34.2342 16.3198 35.5542 13.8398C36.9142 11.3598 38.8142 9.37976 41.2542 7.89976C43.7342 6.37976 46.6742 5.61976 50.0742 5.61976C53.4742 5.61976 56.3942 6.37976 58.8342 7.89976C61.3142 9.37976 63.2142 11.3598 64.5342 13.8398C65.8542 16.3198 66.5142 19.0198 66.5142 21.9398C66.5142 24.8198 65.8542 27.4998 64.5342 29.9798C63.2142 32.4598 61.3142 34.4598 58.8342 35.9798C56.3942 37.4598 53.4742 38.1998 50.0742 38.1998ZM41.8542 21.9398C41.8542 23.7798 42.2142 25.4198 42.9342 26.8598C43.6542 28.2598 44.6342 29.3598 45.8742 30.1598C47.1142 30.9598 48.5142 31.3598 50.0742 31.3598C51.5942 31.3598 52.9742 30.9598 54.2142 30.1598C55.4542 29.3198 56.4342 28.1998 57.1542 26.7998C57.9142 25.3598 58.2942 23.7198 58.2942 21.8798C58.2942 20.0798 57.9142 18.4798 57.1542 17.0798C56.4342 15.6398 55.4542 14.5198 54.2142 13.7198C52.9742 12.8798 51.5942 12.4598 50.0742 12.4598C48.5142 12.4598 47.1142 12.8798 45.8742 13.7198C44.6342 14.5198 43.6542 15.6398 42.9342 17.0798C42.2142 18.4798 41.8542 20.0998 41.8542 21.9398Z" fill="black"/>
    <path d="M82.4736 15.24L76.4736 42.6H68.1936L76.1936 0H82.7936L98.8136 28.08L104.814 0.0599995H113.094L105.094 42.6H98.1936L82.4736 15.24Z" fill="black"/>
    <path d="M131.168 38.1998C127.728 38.1998 124.768 37.4598 122.288 35.9798C119.848 34.4598 117.968 32.4598 116.648 29.9798C115.328 27.4998 114.668 24.8198 114.668 21.9398C114.668 19.0198 115.328 16.3198 116.648 13.8398C118.008 11.3598 119.908 9.37976 122.348 7.89976C124.828 6.37976 127.768 5.61976 131.168 5.61976C134.568 5.61976 137.488 6.37976 139.928 7.89976C142.408 9.37976 144.308 11.3598 145.628 13.8398C146.948 16.3198 147.608 19.0198 147.608 21.9398C147.608 24.8198 146.948 27.4998 145.628 29.9798C144.308 32.4598 142.408 34.4598 139.928 35.9798C137.488 37.4598 134.568 38.1998 131.168 38.1998ZM122.948 21.9398C122.948 23.7798 123.308 25.4198 124.028 26.8598C124.748 28.2598 125.728 29.3598 126.968 30.1598C128.208 30.9598 129.608 31.3598 131.168 31.3598C132.688 31.3598 134.068 30.9598 135.308 30.1598C136.548 29.3198 137.528 28.1998 138.248 26.7998C139.008 25.3598 139.388 23.7198 139.388 21.8798C139.388 20.0798 139.008 18.4798 138.248 17.0798C137.528 15.6398 136.548 14.5198 135.308 13.7198C134.068 12.8798 132.688 12.4598 131.168 12.4598C129.608 12.4598 128.208 12.8798 126.968 13.7198C125.728 14.5198 124.748 15.6398 124.028 17.0798C123.308 18.4798 122.948 20.0998 122.948 21.9398Z" fill="black"/>
    <path d="M165.335 38.1998C168.735 38.1998 171.675 37.4398 174.155 35.9198C176.635 34.3998 178.555 32.3998 179.915 29.9198C181.275 27.4398 181.955 24.7598 181.955 21.8798C181.955 18.9598 181.295 16.2598 179.975 13.7798C178.615 11.2998 176.695 9.31976 174.215 7.83976C171.735 6.35976 168.795 5.61976 165.395 5.61976C161.955 5.61976 159.035 6.35976 156.635 7.83976C154.195 9.31976 152.375 11.2598 151.175 13.6598L159.035 16.0598C160.435 13.6598 162.575 12.4598 165.455 12.4598C167.015 12.4598 168.415 12.8598 169.655 13.6598C170.895 14.4198 171.875 15.5198 172.595 16.9598C173.315 18.3598 173.675 19.9998 173.675 21.8798C173.675 23.7198 173.315 25.3598 172.595 26.7998C171.835 28.1998 170.835 29.3198 169.595 30.1598C168.355 30.9598 166.975 31.3598 165.455 31.3598C164.015 31.3598 162.695 31.0198 161.495 30.3398C160.255 29.6198 159.395 28.7198 158.915 27.6398L151.055 30.0398C152.135 32.3998 153.935 34.3598 156.455 35.9198C158.935 37.4398 161.895 38.1998 165.335 38.1998Z" fill="black"/>
</svg>
